<?xml version="1.0" encoding="iso-8859-1"?>
<!-- Generator: Adobe Illustrator 19.0.0, SVG Export Plug-In . SVG Version: 6.00 Build 0)  -->
<svg xmlns="http://www.w3.org/2000/svg" xmlns:xlink="http://www.w3.org/1999/xlink" version="1.1" id="Capa_1" x="0px" y="0px" viewBox="0 0 376.832 376.832" style="enable-background:new 0 0 376.832 376.832;" xml:space="preserve" width="512px" height="512px">
<g>
	<g>
		<path d="M163.584,35.84l-4.608-5.12c-2.048-2.048-5.12-2.56-7.168-0.512c-2.048,2.048-2.56,5.12-0.512,7.168l4.096,5.12    c1.024,1.024,2.56,1.536,4.096,1.536c1.024,0,2.56-0.512,3.584-1.024C165.12,40.96,165.632,37.888,163.584,35.84z" fill="#FFFFFF"/>
	</g>
</g>
<g>
	<g>
		<path d="M248.064,33.28l-4.608-5.12c-2.048-2.048-5.12-2.56-7.168-0.512c-2.048,2.048-2.56,5.12-0.512,7.168l4.096,5.12    c1.024,1.024,2.56,1.536,4.096,1.536c1.024,0,2.56-0.512,3.584-1.024C249.6,38.4,250.112,35.328,248.064,33.28z" fill="#FFFFFF"/>
	</g>
</g>
<g>
	<g>
		<path d="M185.6,62.464c-1.024-2.56-4.096-4.096-6.656-3.072l-6.144,2.56c-2.56,1.024-4.096,4.096-3.072,6.656    c1.024,2.048,2.56,3.584,4.608,3.584c0.512,0,1.024,0,2.048-0.512l6.144-2.56C185.088,68.096,186.624,65.024,185.6,62.464z" fill="#FFFFFF"/>
	</g>
</g>
<g>
	<g>
		<path d="M107.264,37.376c-1.024-2.56-4.096-4.096-6.656-3.072l-6.144,2.56c-2.56,1.024-4.096,4.096-3.072,6.656    c0.512,2.048,2.56,3.584,4.608,3.584c0.512,0,1.024,0,2.048-0.512l6.144-2.56C106.752,43.008,108.288,39.936,107.264,37.376z" fill="#FFFFFF"/>
	</g>
</g>
<g>
	<g>
		<path d="M209.664,35.84c-1.024-2.56-4.096-4.096-6.656-3.072l-6.144,2.56c-2.56,1.024-4.096,4.096-3.072,6.656    c0.512,2.56,2.56,3.584,4.608,3.584c0.512,0,1.024,0,2.048-0.512l6.144-2.56C209.152,41.472,210.688,38.4,209.664,35.84z" fill="#FFFFFF"/>
	</g>
</g>
<g>
	<g>
		<path d="M286.464,44.544c-1.024-2.56-4.096-4.096-6.656-3.072l-6.144,2.56c-2.56,1.024-4.096,4.096-3.072,6.656    c0.512,2.048,2.56,3.584,4.608,3.584c0.512,0,1.024,0,2.048-0.512l6.144-2.56C285.952,50.176,287.488,47.104,286.464,44.544z" fill="#FFFFFF"/>
	</g>
</g>
<g>
	<g>
		<path d="M129.792,54.784l-6.656-1.024c-2.56-0.512-5.632,1.536-5.632,4.096c-0.512,3.072,1.536,5.632,4.096,6.144l6.656,1.024    h0.512c2.56,0,4.608-2.048,5.12-4.608C134.4,57.856,132.352,54.784,129.792,54.784z" fill="#FFFFFF"/>
	</g>
</g>
<g>
	<g>
		<path d="M233.728,54.272l-6.656-1.024c-2.56-0.512-5.632,1.536-5.632,4.096c-0.512,3.072,1.536,5.632,4.096,6.144l6.656,1.024    h0.512c2.56,0,4.608-2.048,5.12-4.608C238.336,57.344,236.288,54.272,233.728,54.272z" fill="#FFFFFF"/>
	</g>
</g>
<g>
	<g>
		<path d="M361.216,190.976v-7.168c0-14.848-11.264-26.624-25.6-27.648v-25.6c5.632-1.536,10.24-4.608,13.824-9.216    c5.12-6.656,6.656-14.848,5.12-22.528l-1.024-4.096C340.224,38.912,291.072,0,234.24,0h-92.16C83.2,0,32.512,41.984,21.248,99.84    c-1.536,7.68,0.512,15.872,5.632,22.016c3.584,4.608,8.704,7.68,14.336,8.704v25.088c-14.336,1.024-25.6,13.312-25.6,27.648v7.168    c0,9.728,4.608,17.92,12.288,23.04c-7.168,5.12-12.288,13.824-12.288,23.04v6.144c0,14.848,11.776,27.136,26.112,28.672v27.648    c-4.096,1.536-8.192,4.096-10.752,7.68c-4.608,5.632-6.656,12.8-5.632,20.48l2.56,16.384c3.072,19.456,19.968,33.28,39.424,33.28    h242.176c19.456,0,36.352-13.824,39.424-33.28l2.56-16.384c1.024-7.168-1.024-14.848-5.632-20.48    c-2.56-3.072-6.144-5.632-9.728-7.168v-28.16c14.336-1.536,25.088-13.824,25.088-28.16v-5.632c0-9.728-4.608-17.92-12.288-23.04    C356.608,208.384,361.216,200.192,361.216,190.976z M34.048,115.2c-3.072-3.584-4.608-8.704-3.584-13.312    C40.704,48.64,86.784,10.24,141.056,10.24h92.16c52.224,0,97.28,35.84,109.568,86.528l1.024,4.096    c1.024,5.12,0,9.728-3.072,13.824c-3.072,4.096-7.68,6.144-12.8,6.144h-281.6C41.728,121.344,37.632,118.784,34.048,115.2z     M325.376,131.584v24.064h-128c-10.752,0-20.992,4.096-28.672,11.776l-23.552,23.552L121.6,167.424    c-7.68-7.68-17.92-11.776-28.672-11.776H50.944v-24.064H325.376z M338.176,312.832c3.072,3.584,4.096,7.68,3.072,12.288    l-2.56,16.384c-2.56,14.336-14.848,25.088-29.184,25.088H66.816c-14.848,0-27.136-10.24-29.184-25.088l-2.56-16.384    c-0.512-4.096,0.512-8.704,3.072-12.288c2.56-2.56,5.632-4.608,9.216-5.12h132.096c8.192,0,15.872,3.072,21.504,8.704    l27.136,27.136c1.024,1.024,2.56,1.536,3.584,1.536c1.536,0,2.56-0.512,3.584-1.536l27.136-27.136    c5.632-5.632,13.312-8.704,21.504-8.704h45.568C332.544,308.736,335.616,310.272,338.176,312.832z M51.456,297.984V271.36h273.92    v26.624h-41.984c-10.752,0-20.992,4.096-28.672,11.776l-23.552,23.552l-23.552-23.552c-7.68-7.68-17.92-11.776-28.672-11.776    H51.456z M350.976,237.056v5.632c0,10.24-8.192,18.432-18.432,18.432H43.776c-10.24,0-18.432-8.192-18.432-18.432v-5.632    c0-10.24,8.192-18.432,18.432-18.432h289.28C342.784,218.624,350.976,226.816,350.976,237.056z M350.976,190.976    c0,9.728-7.68,17.408-17.408,17.408h-0.512H43.776h-0.512c-9.728,0-17.408-7.68-17.408-17.408v-7.168    c0-9.728,7.68-17.408,17.408-17.408h3.584c0.512,0,0.512,0,1.024,0H93.44c8.192,0,15.872,3.072,21.504,8.704l27.136,27.136    c1.024,1.024,2.56,1.536,3.584,1.536c1.536,0,2.56-0.512,3.584-1.536l27.136-27.136c5.632-5.632,13.312-8.704,21.504-8.704    h132.608c0.512,0,0.512,0,1.024,0s1.024,0.512,2.048,0.512c9.728,0,17.408,7.68,17.408,17.408V190.976z" fill="#FFFFFF"/>
	</g>
</g>
<g>
</g>
<g>
</g>
<g>
</g>
<g>
</g>
<g>
</g>
<g>
</g>
<g>
</g>
<g>
</g>
<g>
</g>
<g>
</g>
<g>
</g>
<g>
</g>
<g>
</g>
<g>
</g>
<g>
</g>
</svg>
